<svg
  xmlns="http://www.w3.org/2000/svg"
  xmlns:xlink="http://www.w3.org/1999/xlink"
  id="Layer_1"
  x="0px"
  y="0px"
  viewBox="0 0 474.7 453.7"
  style="enable-background: new 0 0 474.7 453.7"
  xml:space="preserve"
>
  <style type="text/css">
  .st0 {
    fill: #fe1c37;
  }
  .st1 {
    enable-background: new;
  }
  .st2 {
    clip-path: url(#SVGID_00000072248337714861239090000011285922969674081964_);
    enable-background: new;
  }
  .st3 {
    clip-path: url(#SVGID_00000164485991839319993420000015941507837073777536_);
    enable-background: new;
  }
  .st4 {
    clip-path: url(#SVGID_00000163049786199238263270000003636327968102094993_);
    enable-background: new;
  }
  .st5 {
    clip-path: url(#SVGID_00000016788561953662301380000000034923413839519878_);
    enable-background: new;
  }
  .st6 {
    clip-path: url(#SVGID_00000150787428649337401570000002755635672386916525_);
    enable-background: new;
  }
  .st7 {
    clip-path: url(#SVGID_00000082339783282193262130000004433205003282992560_);
    enable-background: new;
  }
  </style><g>
    <path
      class="st0"
      d="M27.7,439.5c-50.7-38.6-7.3-122.8,10-157l0.8,0.6C29.9,301.5-2,383.9,46.7,417.7  c59,41.1,230.5-54.6,265.7-82.1l1,0.2C214.6,429,81.4,480.4,27.7,439.5z"
    ></path> <path
      class="st0"
      d="M464.7,102.8c1.6-14.7,14.5-62.5-52.5-80.3c-84.6-22.4-215.9,71.6-244.5,95.4l-1.5,0  c74.1-77.9,209.5-136.4,271-110.1c52.9,22.6,36.9,71,28.9,95.4L464.7,102.8z"
    ></path> <g>
      <g>
        <g>
          <g class="st1">
            <g class="st1">
              <defs>
                <path
                  id="SVGID_1_"
                  class="st1"
                  d="M96.4,220.1c0-0.5,0.1-1.1,0.1-1.6c0.1-0.5,0.1-1.1,0.2-1.6c0.1-0.5,0.1-1.1,0.2-1.6        c0.1-0.6,0.2-1.1,0.3-1.7c-0.1,0.6-0.2,1.1-0.3,1.7c-0.1,0.6-0.2,1.1-0.2,1.6c-0.1,0.5-0.1,1.1-0.2,1.6        C96.5,219.1,96.4,219.6,96.4,220.1z"
                ></path>
              </defs> <use
                xlink:href="#SVGID_1_"
                style="overflow: visible; fill: #fe1c37"
              ></use> <clipPath
                id="SVGID_00000105384631994074636780000007327410398971051161_"
              >
                <use xlink:href="#SVGID_1_" style="overflow: visible"></use>
              </clipPath> <g
                style="clip-path: url(#SVGID_00000105384631994074636780000007327410398971051161_); enable-background: new"
              >
                <path
                  class="st0"
                  d="M96.4,220.1c0-0.5,0.1-1.1,0.1-1.6c0.1-0.5,0.1-1.1,0.2-1.6c0.1-0.5,0.1-1.1,0.2-1.6        c0.1-0.6,0.2-1.1,0.3-1.7c-0.1,0.6-0.2,1.1-0.3,1.7c-0.1,0.6-0.2,1.1-0.2,1.6c-0.1,0.5-0.1,1.1-0.2,1.6        C96.5,219.1,96.4,219.6,96.4,220.1"
                ></path>
              </g>
            </g> <g>
              <path
                class="st0"
                d="M234.1,137.1c1.8,0.3,3.6,0.7,5.4,1.1c1.7,0.4,3.4,0.9,5.1,1.4c1.7,0.5,3.3,1.1,4.8,1.7       c1.5,0.6,3,1.3,4.5,2l-25.1,32.2c-1.6-0.6-3.2-1.2-4.8-1.7c-1.6-0.5-3.1-1-4.6-1.4c-1.5-0.4-3-0.8-4.4-1.2       c-1.5-0.4-2.9-0.7-4.3-0.9c-2.5-0.5-5.1-0.8-7.5-1c-2.5-0.2-4.9-0.3-7.4-0.3c-2.5,0-4.9,0.2-7.4,0.5c-2.5,0.3-5,0.7-7.6,1.2       c-4.4,0.9-8.6,2.3-12.5,4.1c-3.8,1.8-7.3,4-10.3,6.5c-3,2.5-5.5,5.3-7.5,8.3c-1.9,3-3.3,6.2-3.8,9.6c-0.2,1.2-0.3,2.4-0.4,3.4       c0,1.1,0.1,2,0.3,2.9c0.2,0.9,0.6,1.7,1,2.4c0.5,0.7,1.1,1.4,1.8,2l-52.9,10.3c0-0.5,0.1-1.1,0.1-1.6c0.1-0.5,0.1-1.1,0.2-1.6       c0.1-0.5,0.1-1.1,0.2-1.6c0.1-0.6,0.2-1.1,0.3-1.7c1.7-9,5.2-17.6,10.3-25.6c5-8,11.5-15.4,19.2-22c7.7-6.6,16.6-12.4,26.4-17       c9.8-4.7,20.5-8.3,31.8-10.6c4.4-0.9,8.7-1.6,13-2c4.3-0.5,8.5-0.8,12.7-0.9c4.1-0.1,8.2,0,12.1,0.3       C226.6,135.9,230.5,136.4,234.1,137.1z"
              ></path>
            </g> <g class="st1">
              <defs>
                <path
                  id="SVGID_00000065051801017780786160000000498094556539828375_"
                  class="st1"
                  d="M205.3,217.3c0,0-0.1,0-0.1,0        c0,0-0.1,0-0.1,0c0,0-0.1,0-0.1,0c0,0-0.1,0-0.1,0c0,0,0.1,0,0.1,0c0,0,0.1,0,0.1,0c0,0,0.1,0,0.1,0        C205.2,217.3,205.3,217.3,205.3,217.3z"
                ></path>
              </defs> <use
                xlink:href="#SVGID_00000065051801017780786160000000498094556539828375_"
                style="overflow: visible; fill: #fe1c37"
              ></use> <clipPath
                id="SVGID_00000054227603090413413160000017082081973568240046_"
              >
                <use
                  xlink:href="#SVGID_00000065051801017780786160000000498094556539828375_"
                  style="overflow: visible"
                ></use>
              </clipPath> <g
                style="clip-path: url(#SVGID_00000054227603090413413160000017082081973568240046_); enable-background: new"
              >
                <path
                  class="st0"
                  d="M204.7,217.2c0,0,0.1,0,0.1,0c0,0,0.1,0,0.1,0c0,0,0.1,0,0.1,0c0,0,0.1,0,0.1,0c0,0-0.1,0-0.1,0        c0,0-0.1,0-0.1,0c0,0-0.1,0-0.1,0C204.8,217.2,204.8,217.2,204.7,217.2"
                ></path>
              </g>
            </g> <g>
              <path
                class="st0"
                d="M204.7,217.2c0.2,0,0.3,0.1,0.5,0.1c0.2,0,0.3,0.1,0.5,0.1c0.2,0,0.3,0.1,0.5,0.1c0.2,0,0.3,0.1,0.5,0.1       L98.8,238.5c-0.4-1-0.7-2-1.1-3.1c-0.3-1-0.6-2.1-0.8-3.2c-0.2-1.1-0.4-2.2-0.5-3.4c-0.1-1.1-0.2-2.3-0.2-3.5l62.1-12.1       c0.6,0.1,1.3,0.2,1.9,0.3c0.7,0.1,1.4,0.2,2.1,0.3c0.7,0.1,1.5,0.2,2.2,0.2c0.8,0.1,1.6,0.1,2.4,0.2l25.3,1.5       c1.1,0.1,2.2,0.1,3.3,0.2c1.1,0.1,2.1,0.2,3.2,0.3c1,0.1,2.1,0.3,3.1,0.4C202.8,216.8,203.8,217,204.7,217.2z"
              ></path>
            </g> <g class="st1">
              <defs>
                <path
                  id="SVGID_00000011013479115108561070000006557868773124755606_"
                  class="st1"
                  d="M173.5,262.5c-0.2-0.1-0.4-0.1-0.7-0.2        c-0.2-0.1-0.5-0.1-0.7-0.2c-0.2-0.1-0.5-0.1-0.7-0.2c-0.2-0.1-0.5-0.1-0.7-0.2c0.2,0,0.5,0.1,0.7,0.2        c0.2,0.1,0.5,0.1,0.7,0.2c0.2,0.1,0.5,0.1,0.7,0.2C173,262.4,173.2,262.5,173.5,262.5z"
                ></path>
              </defs> <use
                xlink:href="#SVGID_00000011013479115108561070000006557868773124755606_"
                style="overflow: visible; fill: #fe1c37"
              ></use> <clipPath
                id="SVGID_00000140725906306721460580000006707808273556400036_"
              >
                <use
                  xlink:href="#SVGID_00000011013479115108561070000006557868773124755606_"
                  style="overflow: visible"
                ></use>
              </clipPath> <g
                style="clip-path: url(#SVGID_00000140725906306721460580000006707808273556400036_); enable-background: new"
              >
                <path
                  class="st0"
                  d="M173.5,262.5c-0.2-0.1-0.4-0.1-0.7-0.2c-0.2-0.1-0.5-0.1-0.7-0.2c-0.2-0.1-0.5-0.1-0.7-0.2        c-0.2-0.1-0.5-0.1-0.7-0.2c0.2,0,0.5,0.1,0.7,0.2c0.2,0.1,0.5,0.1,0.7,0.2c0.2,0.1,0.5,0.1,0.7,0.2        C173,262.4,173.2,262.5,173.5,262.5"
                ></path>
              </g>
            </g> <g>
              <path
                class="st0"
                d="M308.4,184c-0.4,1.1-0.8,2.3-1.2,3.5c-0.4,1.2-0.7,2.4-1.1,3.6c-0.4,1.2-0.7,2.5-1,3.7       c-0.3,1.3-0.6,2.5-0.9,3.8l-49.9,9.7c0.3-1.3,0.7-2.5,1.1-3.8c0.4-1.2,0.8-2.5,1.2-3.7c0.4-1.2,0.8-2.4,1.3-3.7       c0.4-1.2,0.9-2.4,1.3-3.6L308.4,184z"
              ></path>
            </g> <g>
              <path
                class="st0"
                d="M235.1,236.7c0.5,1,1,2,1.4,3c0.4,1,0.8,2.1,1.1,3.2c0.3,1.1,0.6,2.2,0.9,3.4c0.2,1.2,0.4,2.4,0.6,3.6       l-65.7,12.5c-0.2-0.1-0.4-0.1-0.7-0.2c-0.2-0.1-0.5-0.1-0.7-0.2c-0.2-0.1-0.5-0.1-0.7-0.2c-0.2-0.1-0.5-0.1-0.7-0.2       c-0.6-0.1-1.3-0.3-2-0.4c-0.7-0.1-1.4-0.2-2.1-0.3c-0.7-0.1-1.5-0.2-2.2-0.2c-0.8-0.1-1.6-0.1-2.4-0.2l-23.3-1.5       c-1.2-0.1-2.4-0.2-3.5-0.3c-1.1-0.1-2.2-0.2-3.3-0.4c-1.1-0.1-2.1-0.3-3.1-0.4c-1-0.2-2-0.3-3-0.5L235.1,236.7z"
              ></path>
            </g> <g>
              <path
                class="st0"
                d="M303,204.3c-0.2,1.1-0.5,2.3-0.7,3.5c-0.2,1.2-0.4,2.4-0.6,3.6c-0.2,1.2-0.4,2.4-0.6,3.7       c-0.2,1.2-0.4,2.5-0.6,3.7l-50.5,9.7l0-0.1c0.2-1.2,0.4-2.5,0.6-3.7c0.2-1.2,0.4-2.4,0.7-3.6c0.2-1.2,0.5-2.4,0.7-3.6       c0.3-1.2,0.5-2.3,0.8-3.5L303,204.3z"
              ></path>
            </g> <g class="st1">
              <defs>
                <path
                  id="SVGID_00000021077488048965647740000016777308709977241266_"
                  class="st1"
                  d="M239.5,255.4c0,0.8,0,1.6,0,2.4        c0,0.8-0.1,1.6-0.1,2.4c-0.1,0.8-0.1,1.7-0.2,2.5c-0.1,0.8-0.2,1.7-0.3,2.6c0.1-0.9,0.2-1.7,0.3-2.6c0.1-0.8,0.2-1.7,0.2-2.5        c0.1-0.8,0.1-1.6,0.1-2.4C239.5,256.9,239.5,256.2,239.5,255.4z"
                ></path>
              </defs> <use
                xlink:href="#SVGID_00000021077488048965647740000016777308709977241266_"
                style="overflow: visible; fill: #fe1c37"
              ></use> <clipPath
                id="SVGID_00000114056179356552128970000011032099471221331336_"
              >
                <use
                  xlink:href="#SVGID_00000021077488048965647740000016777308709977241266_"
                  style="overflow: visible"
                ></use>
              </clipPath> <g
                style="clip-path: url(#SVGID_00000114056179356552128970000011032099471221331336_); enable-background: new"
              >
                <path
                  class="st0"
                  d="M239.5,255.4c0,0.8,0,1.6,0,2.4c0,0.8-0.1,1.6-0.1,2.4c-0.1,0.8-0.1,1.7-0.2,2.5        c-0.1,0.8-0.2,1.7-0.3,2.6c0.1-0.9,0.2-1.7,0.3-2.6c0.1-0.8,0.2-1.7,0.2-2.5c0.1-0.8,0.1-1.6,0.1-2.4        C239.5,256.9,239.5,256.2,239.5,255.4"
                ></path>
              </g>
            </g> <g class="st1">
              <defs>
                <path
                  id="SVGID_00000182511054862693576780000007634366954417070214_"
                  class="st1"
                  d="M84.9,312.1c1.4,0.5,2.9,0.9,4.3,1.4        c1.4,0.4,2.8,0.9,4.2,1.3c1.4,0.4,2.8,0.8,4.2,1.1c1.4,0.4,2.8,0.7,4.2,1c3.1,0.7,6.3,1.2,9.5,1.6c3.2,0.4,6.4,0.7,9.8,0.7        c3.3,0.1,6.8,0,10.3-0.3c3.6-0.3,7.3-0.8,11.1-1.5c-3.9,0.7-7.6,1.2-11.1,1.5c-3.6,0.3-7,0.4-10.3,0.3        c-3.3-0.1-6.6-0.3-9.8-0.7c-3.2-0.4-6.3-1-9.5-1.6c-1.4-0.3-2.8-0.6-4.2-1c-1.4-0.4-2.8-0.7-4.2-1.1        c-1.4-0.4-2.8-0.8-4.2-1.3C87.7,313,86.3,312.5,84.9,312.1z"
                ></path>
              </defs> <use
                xlink:href="#SVGID_00000182511054862693576780000007634366954417070214_"
                style="overflow: visible; fill: #fe1c37"
              ></use> <clipPath
                id="SVGID_00000063619641417645742690000002200133599485340084_"
              >
                <use
                  xlink:href="#SVGID_00000182511054862693576780000007634366954417070214_"
                  style="overflow: visible"
                ></use>
              </clipPath> <g
                style="clip-path: url(#SVGID_00000063619641417645742690000002200133599485340084_); enable-background: new"
              >
                <path
                  class="st0"
                  d="M84.9,312.1c1.4,0.5,2.9,0.9,4.3,1.4c1.4,0.4,2.8,0.9,4.2,1.3c1.4,0.4,2.8,0.8,4.2,1.1        c1.4,0.4,2.8,0.7,4.2,1c0.5,0.1,1.1,0.2,1.6,0.3c0.5,0.1,1.1,0.2,1.6,0.3c0.5,0.1,1.1,0.2,1.6,0.3c0.5,0.1,1.1,0.2,1.6,0.3        c-0.5-0.1-1.1-0.2-1.6-0.3c-0.5-0.1-1.1-0.2-1.6-0.3c-0.5-0.1-1.1-0.2-1.6-0.3c-0.5-0.1-1.1-0.2-1.6-0.3        c-1.4-0.3-2.8-0.6-4.2-1c-1.4-0.4-2.8-0.7-4.2-1.1c-1.4-0.4-2.8-0.8-4.2-1.3C87.7,313,86.3,312.5,84.9,312.1"
                ></path> <path
                  class="st0"
                  d="M108.2,318.1c1.3,0.2,2.6,0.4,3.9,0.5c1.3,0.2,2.6,0.3,4,0.4c1.3,0.1,2.7,0.2,4.1,0.2        c1.4,0,2.7,0.1,4.1,0c-1.4,0-2.8,0-4.1,0c-1.4,0-2.7-0.1-4.1-0.2c-1.3-0.1-2.7-0.2-4-0.4        C110.8,318.5,109.5,318.3,108.2,318.1"
                ></path> <path
                  class="st0"
                  d="M124.4,319.3c1.3,0,2.6-0.1,4-0.1c1.3-0.1,2.7-0.2,4.1-0.3c1.4-0.1,2.8-0.3,4.2-0.5        c1.4-0.2,2.9-0.4,4.3-0.7c-1.5,0.3-2.9,0.5-4.3,0.7c-1.4,0.2-2.8,0.3-4.2,0.5c-1.4,0.1-2.7,0.2-4.1,0.3        C127,319.2,125.7,319.2,124.4,319.3"
                ></path> <path
                  class="st0"
                  d="M140.9,317.7c0.1,0,0.3,0,0.4-0.1c0.1,0,0.3,0,0.4-0.1c0.1,0,0.3,0,0.4-0.1c0.1,0,0.3-0.1,0.4-0.1        c-0.1,0-0.3,0.1-0.4,0.1c-0.1,0-0.3,0.1-0.4,0.1c-0.1,0-0.3,0-0.4,0.1C141.2,317.7,141,317.7,140.9,317.7"
                ></path>
              </g>
            </g> <g>
              <path
                class="st0"
                d="M299.7,224.3c-0.2,1.3-0.3,2.6-0.4,3.8c-0.1,1.2-0.2,2.5-0.3,3.7c-0.1,1.2-0.2,2.4-0.3,3.5       c-0.1,1.2-0.1,2.3-0.2,3.4l-50.3,9.6c0-1.1,0.1-2.3,0.1-3.4c0.1-1.2,0.1-2.3,0.2-3.5c0.1-1.2,0.2-2.4,0.3-3.6       c0.1-1.2,0.3-2.5,0.4-3.7L299.7,224.3z"
              ></path>
            </g> <g>
              <path
                class="st0"
                d="M239.5,255.4c0,0.8,0,1.6,0,2.4c0,0.8-0.1,1.6-0.1,2.4c-0.1,0.8-0.1,1.7-0.2,2.5       c-0.1,0.8-0.2,1.7-0.3,2.6c-0.1,0.4-0.1,0.8-0.2,1.2c-0.1,0.4-0.1,0.8-0.2,1.2c-0.1,0.4-0.2,0.8-0.2,1.2       c-0.1,0.4-0.2,0.8-0.2,1.2l-51.1,9.6c0.1-1.4,0.1-2.8,0-4.1c-0.2-1.3-0.4-2.4-0.9-3.5c-0.4-1.1-1-2.1-1.7-3       c-0.7-0.9-1.5-1.8-2.5-2.5L239.5,255.4z"
              ></path>
            </g> <g>
              <path
                class="st0"
                d="M298.4,244.2c0,1.3,0,2.6,0.1,3.8c0.1,1.2,0.1,2.4,0.2,3.6c0.1,1.2,0.2,2.3,0.4,3.4       c0.2,1.1,0.3,2.2,0.5,3.2l-49.9,9.4c-0.2-1.1-0.4-2.2-0.6-3.3c-0.2-1.1-0.3-2.3-0.5-3.4c-0.1-1.2-0.2-2.3-0.3-3.5       c-0.1-1.2-0.1-2.4-0.2-3.7L298.4,244.2z"
              ></path>
            </g> <g class="st1">
              <defs>
                <path
                  id="SVGID_00000010304290809648189280000007283319840164550542_"
                  class="st1"
                  d="M232.1,286.8        c-3.7,8-8.8,15.7-15.1,22.7c-6.3,7.1-13.7,13.5-22.1,19.2c-8.4,5.7-17.8,10.7-27.9,14.8c-10.1,4.1-21.1,7.2-32.5,9.4        c-4.9,0.9-9.9,1.6-14.9,2c-5,0.4-9.9,0.6-14.8,0.5c-4.9-0.1-9.7-0.4-14.4-0.9c-4.7-0.5-9.2-1.3-13.6-2.3        c4.4,1,8.9,1.8,13.6,2.3c4.7,0.5,9.5,0.8,14.4,0.9c4.9,0.1,9.9-0.1,14.8-0.5c5-0.4,9.9-1.1,14.9-2        c11.5-2.1,22.4-5.3,32.5-9.4c10.1-4.1,19.5-9.1,27.9-14.8c8.4-5.7,15.8-12.2,22.1-19.2C223.2,302.4,228.3,294.8,232.1,286.8z        "
                ></path>
              </defs> <use
                xlink:href="#SVGID_00000010304290809648189280000007283319840164550542_"
                style="overflow: visible; fill: #fe1c37"
              ></use> <clipPath
                id="SVGID_00000104681434877350159810000014063833228501595795_"
              >
                <use
                  xlink:href="#SVGID_00000010304290809648189280000007283319840164550542_"
                  style="overflow: visible"
                ></use>
              </clipPath> <g
                style="clip-path: url(#SVGID_00000104681434877350159810000014063833228501595795_); enable-background: new"
              >
                <path
                  class="st0"
                  d="M232.1,286.8c-3,6.5-6.9,12.7-11.5,18.5c-4.7,5.8-10.1,11.3-16.2,16.4c-6.1,5.1-12.9,9.7-20.3,13.8        c-7.4,4.1-15.3,7.7-23.7,10.6c8.4-3,16.4-6.5,23.7-10.6c7.4-4.1,14.2-8.7,20.3-13.8c6.1-5.1,11.5-10.5,16.2-16.4        C225.2,299.4,229.1,293.2,232.1,286.8"
                ></path> <path
                  class="st0"
                  d="M160.3,346c-2,0.7-4.1,1.4-6.2,2c-2.1,0.6-4.2,1.3-6.4,1.8c-2.2,0.6-4.3,1.1-6.5,1.6        c-2.2,0.5-4.4,0.9-6.7,1.4c-0.2,0-0.4,0.1-0.5,0.1c-0.2,0-0.4,0.1-0.5,0.1c-0.2,0-0.4,0.1-0.5,0.1c-0.2,0-0.4,0.1-0.5,0.1        c0.2,0,0.4-0.1,0.5-0.1c0.2,0,0.4-0.1,0.5-0.1c0.2,0,0.4-0.1,0.5-0.1c0.2,0,0.4-0.1,0.5-0.1c2.2-0.4,4.5-0.9,6.7-1.4        c2.2-0.5,4.4-1,6.5-1.6c2.2-0.6,4.3-1.2,6.4-1.8C156.2,347.4,158.3,346.7,160.3,346"
                ></path> <path
                  class="st0"
                  d="M132.4,353.2c-2,0.3-4.1,0.6-6.2,0.9c-2.1,0.3-4.1,0.5-6.2,0.7c-2.1,0.2-4.1,0.3-6.2,0.4        c-2.1,0.1-4.1,0.2-6.1,0.2c2,0,4.1-0.1,6.1-0.2c2.1-0.1,4.1-0.2,6.2-0.4c2.1-0.2,4.1-0.4,6.2-0.7        C128.3,353.9,130.3,353.6,132.4,353.2"
                ></path> <path
                  class="st0"
                  d="M107.7,355.4c-2.1,0-4.1,0-6.1-0.1c-2-0.1-4-0.2-6-0.3c-2-0.2-4-0.3-5.9-0.6c-2-0.2-3.9-0.5-5.8-0.8        c1.9,0.3,3.8,0.6,5.8,0.8c2,0.2,3.9,0.4,5.9,0.6c2,0.1,4,0.3,6,0.3C103.6,355.4,105.6,355.4,107.7,355.4"
                ></path> <path
                  class="st0"
                  d="M83.8,353.6L83.8,353.6c-0.6-0.1-1.2-0.2-1.8-0.3c-0.6-0.1-1.2-0.2-1.8-0.3c-0.6-0.1-1.2-0.2-1.7-0.4        c-0.6-0.1-1.2-0.2-1.7-0.4c0.6,0.1,1.1,0.3,1.7,0.4c0.6,0.1,1.2,0.2,1.7,0.4c0.6,0.1,1.2,0.2,1.8,0.3        C82.6,353.4,83.2,353.5,83.8,353.6"
                ></path>
              </g>
            </g> <g>
              <path
                class="st0"
                d="M236.3,275.7c-2.8,9.3-7.3,18.2-13.4,26.4c-6.1,8.3-13.6,15.9-22.5,22.6c-8.8,6.7-18.9,12.6-30,17.4       c-11.1,4.8-23.2,8.4-36,10.8c-4.9,0.9-9.9,1.6-14.9,2c-5,0.4-9.9,0.6-14.8,0.5c-4.9-0.1-9.7-0.4-14.4-0.9       c-4.7-0.5-9.2-1.3-13.6-2.3c-1.3-0.3-2.6-0.6-3.8-0.9c-1.3-0.3-2.5-0.7-3.7-1.1c-1.2-0.4-2.4-0.8-3.6-1.2       c-1.2-0.4-2.3-0.8-3.5-1.3l22.7-35.7c1.4,0.5,2.9,0.9,4.3,1.4c1.4,0.4,2.8,0.9,4.2,1.3c1.4,0.4,2.8,0.8,4.2,1.1       c1.4,0.4,2.8,0.7,4.2,1c3.1,0.7,6.3,1.2,9.5,1.6c3.2,0.4,6.4,0.7,9.8,0.7c3.3,0.1,6.8,0,10.3-0.3c3.6-0.3,7.3-0.8,11.1-1.5       c6-1.1,11.4-2.7,16.3-4.6c4.8-1.9,9.1-4.3,12.7-7c3.6-2.7,6.6-5.8,9-9.3c2.4-3.4,4.1-7.2,5.2-11.4L236.3,275.7z"
              ></path>
            </g> <path
              class="st0"
              d="M442,197.8l-83.5,15.6l-7,15.2l85.5-16.4C438.8,207.6,440.4,202.8,442,197.8z"
            ></path> <path
              class="st0"
              d="M383.5,241.8l44.6-8.6l4.4-9.4c0.6-1.5,1.2-2.9,1.8-4.4l-49.3,8.8c0,0,0.6,2.6,0.4,5.8      C385.2,236,383.5,241.8,383.5,241.8z"
            ></path> <path
              class="st0"
              d="M447.5,178.7l-81,14.8l-6.4,13.7l83.8-15.3C445.1,187.6,446.3,183.2,447.5,178.7z"
            ></path>
          </g> <g>
            <path
              class="st0"
              d="M217.1,220.9c1.6,0.7,3.1,1.4,4.5,2.2c1.4,0.8,2.7,1.7,4,2.6c1.2,0.9,2.4,1.9,3.5,2.9c1.1,1,2.1,2.1,3,3.3      l-117.3,22.5c-1.6-0.6-3-1.4-4.3-2.2c-1.3-0.8-2.6-1.6-3.7-2.6c-1.1-0.9-2.1-1.9-3.1-3c-0.9-1.1-1.7-2.2-2.5-3.4L217.1,220.9z"
            ></path>
          </g>
        </g>
      </g> <path
        class="st0"
        d="M251,272.9l50-9.4c0,0,4.8,23,36.3,18.6c28.2-4,43.6-33.3,43.6-33.3l43.7-7.9c0,0-32.5,75.5-110.8,75.5   C259.2,316.4,251,272.9,251,272.9z"
      ></path> <g>
        <path
          class="st0"
          d="M406.6,103.5c2.4,0.4,4.8,0.9,7.1,1.5c2.3,0.6,4.6,1.3,6.8,2.1c2.2,0.8,4.4,1.7,6.4,2.7    c2.1,1,4.1,2.1,6.1,3.3l-26.8,29.4c-1.5-0.9-3-1.6-4.5-2.3c-1.5-0.7-3-1.3-4.6-1.9c-1.6-0.6-3.1-1.1-4.7-1.5    c-1.6-0.4-3.2-0.8-4.8-1.1c-2-0.4-4.1-0.6-6.2-0.7c-2.1-0.1-4.2-0.2-6.4-0.1c-2.2,0.1-4.4,0.2-6.7,0.5c-2.3,0.3-4.6,0.6-6.9,1.1    c-3.3,0.6-6.5,1.5-9.5,2.5c-3.1,1-6,2.2-8.8,3.6c-2.8,1.4-5.5,2.9-8,4.6c-2.5,1.7-4.8,3.5-7,5.6c-1.9,1.8-3.7,3.7-5.4,5.6    c-1.7,2-3.2,4-4.6,6.1c-1.4,2.1-2.8,4.4-4,6.7c-1.2,2.3-2.4,4.7-3.4,7.2l-49.2,9.6c2.6-5.9,5.5-11.5,8.8-16.8    c3.3-5.3,6.9-10.5,10.9-15.3c4-4.9,8.3-9.5,13-13.9c4.7-4.4,9.8-8.6,15.2-12.6c4.4-3.2,8.7-6,13.1-8.6c4.4-2.5,8.8-4.8,13.3-6.8    c4.5-2,9.2-3.7,14-5.2c4.8-1.5,9.8-2.7,15.1-3.8c3.8-0.8,7.5-1.4,11.1-1.8c3.6-0.4,7.2-0.7,10.7-0.8c3.5-0.1,6.9-0.1,10.2,0.1    C400.2,102.6,403.5,103,406.6,103.5z"
        ></path>
      </g>
    </g></g>
</svg>
